# xmcd CD database file
#
# Track frame offsets:
#	150
#	23423
#	43652
#	61458
#	81196
#	91459
#	101857
#	121817
#	134907
#	157486
#	179345
#	200180
#	216591
#
# Disc length: 3240 seconds
#
# Revision: 0
# Processed by: cddbd v1.5.2PL0 Copyright (c) Steve Scherf et al.
# Submitted via: CDex 1.70beta2
#
DISCID=cb0ca60d
DTITLE=Lava - Afro Temple Percussive Atp01 Compiled and Mixed By Lava
DYEAR=2006
DGENRE=Jazz
TTITLE0=Aqui Tomoca and Oshibuchi Teisuke (LAVA’s Back To Our Roots Re
TTITLE1=Fascinio Gladston Galliza (LAVA’s Deeply In Love With Brazil
TTITLE2=50 Ways To Leave Your Lover Platinum Pied Pipers
TTITLE3=My Oh My Brigette
TTITLE4=Itshintsh’ Ikhona Amampondo
TTITLE5=Just Give Me Time Carola and Heikki Sarmanto Trio
TTITLE6=Defect2 - Curiosidade Tom Ze (John Mcentire Remix)
TTITLE7=Choro Saigenji (LAVA's Jazz Samba Session)
TTITLE8=Bewitched Wanda Sa (LAVA's Secret Backyard Remix)
TTITLE9=Gosto Do Que E Bom Gerardo Frisina
TTITLE10=Mas Que Nada Gregor Salto (Gregor's Respect To The Master Mi
TTITLE11=Terra and Agua Electro Coco (Buschemi's Smooth Bossamix)
TTITLE12=Diciembre Lava Featuring Gema (Source Of Love Version)
EXTD=YEAR: 2006
EXTT0=
EXTT1=
EXTT2=
EXTT3=
EXTT4=
EXTT5=
EXTT6=
EXTT7=
EXTT8=
EXTT9=
EXTT10=
EXTT11=
EXTT12=
PLAYORDER=
